<svg xmlns="http://www.w3.org/2000/svg" width="26.539" height="26.538" viewBox="0 0 26.539 26.538"><defs><style>.a{fill:#02a59c;}</style></defs><path class="a" d="M22.51,26.538H4.029A4.034,4.034,0,0,1,0,22.509V4.029A4.034,4.034,0,0,1,4.029,0H22.51a4.034,4.034,0,0,1,4.029,4.029v18.48A4.034,4.034,0,0,1,22.51,26.538ZM4.029,2.2A1.834,1.834,0,0,0,2.2,4.029v18.48a1.834,1.834,0,0,0,1.832,1.832H22.51a1.834,1.834,0,0,0,1.832-1.832V4.029A1.834,1.834,0,0,0,22.51,2.2ZM13.27,19.374a1.1,1.1,0,0,1-1.1-1.1V14.368H8.264a1.1,1.1,0,0,1,0-2.2h3.907V8.263a1.1,1.1,0,0,1,2.2,0V12.17h3.907a1.1,1.1,0,0,1,0,2.2H14.369v3.907A1.1,1.1,0,0,1,13.27,19.374Z" transform="translate(0.001 0)"/></svg>